<?xml version="1.0" standalone="no"?><!DOCTYPE svg PUBLIC "-//W3C//DTD SVG 1.1//EN" "http://www.w3.org/Graphics/SVG/1.1/DTD/svg11.dtd"><svg t="1580637600850" class="icon" viewBox="0 0 1589 1024" version="1.1" xmlns="http://www.w3.org/2000/svg" p-id="2008" xmlns:xlink="http://www.w3.org/1999/xlink" width="310.3515625" height="200"><defs><style type="text/css"></style></defs><path d="M284.928 784.954667c-33.802667-7.818667-57.701333-38.048-57.557333-72.821334V311.749333c2.501333-36.405333 24.976-64.853333 57.44-72.816l357.349333-80.554666L679.626667 0H264.832C117.493333 0 0 122.197333 0 272.954667v472.970666c0 150.645333 119.989333 275.456 264.832 275.456h414.789333l-37.461333-158.490666-357.349333-77.936h0.117333zM1324.277333 0h-417.28l37.456 158.490667 357.349334 80.672c32.469333 7.733333 57.44 36.405333 57.44 72.816v400.16c-2.496 36.405333-24.970667 64.853333-57.44 72.816l-357.349334 80.554666L906.992 1024h417.285333c144.96 0 264.949333-122.197333 264.949334-275.456V272.96C1586.730667 122.08 1469.237333 0 1324.394667 0h-0.117334zM642.048 491.178667h304.906667v39.024h-304.794667v-39.024h-0.112z" fill="#000000" p-id="2009"></path></svg>