<?xml version="1.0" standalone="no"?><!DOCTYPE svg PUBLIC "-//W3C//DTD SVG 1.1//EN" "http://www.w3.org/Graphics/SVG/1.1/DTD/svg11.dtd"><svg t="1580637702095" class="icon" viewBox="0 0 2428 1024" version="1.1" xmlns="http://www.w3.org/2000/svg" p-id="5654" xmlns:xlink="http://www.w3.org/1999/xlink" width="474.21875" height="200"><defs><style type="text/css"></style></defs><path d="M897.870779 104.14434h659.03034c61.516379 0 92.274569 30.75819 92.274569 92.377785v659.856063c0 61.619595-30.75819 92.377784-92.274569 92.377784H897.870779c-61.516379 0-92.274569-30.75819-92.274569-92.377784V196.522125c0-61.619595 30.75819-92.377784 92.274569-92.377785z m0 0" fill="#FE7702" p-id="5655"></path><path d="M1454.717871 359.499244c44.589054-42.731176 114.156234-52.639855 114.156234-52.639855s-4.231831-52.639855-70.908981-74.727951c-95.783893-30.551759-148.939825 13.624433-148.939824 13.624433s-119.729866-91.448846-239.562947-29.003527c-119.833081 62.445318-204.366495 232.957162-204.366496 232.957161 46.034069 56.871686 164.422135 58.213487 164.422135 57.284548-14.14051 3.302893-36.125391 20.230219-34.78359 20.230219-50.265901-14.553372-165.86715 52.639855-148.010886 99.602862 18.372341 46.963008 180.833384 34.78359 180.833384 34.783591s33.338575 24.874912 26.319927 24.874912c-87.32023-7.018647-101.46074 39.015422-101.46074 40.357222 22.088096 0 155.958472 36.125391 155.958472 36.12539s22.088096 95.371031 43.247253 96.816047c20.64308 1.445016 39.015422-34.78359 39.015422-36.125391 26.319927-26.319927 19.30128-81.746598 16.927326-84.533414 12.695494-7.018647 70.908981-24.874912 172.369721-131.496421 101.46074-106.724725 39.015422-245.239794 34.78359-248.129826zM889.200685 620.221349c0-56.871686 130.567483-98.673924 131.083561-87.423446-16.927326 39.94436 0 67.606088 0 67.606089L993.964318 623.937103l36.125391 1.445016s20.64308 29.106743 22.088096 30.551759c-92.584215 8.463663-160.70638-9.805463-162.97712-35.712529z m133.870376-9.805464v6.089709h-5.676847l5.676847-6.089709z m143.262978 84.946276c-1.445016 4.231831-14.553372 8.463663-14.553372 8.463663l-2.786816-8.463663c-0.103215 0 18.681988-3.715754 17.340188 0z m0 0" fill="#999999" p-id="5656"></path><path d="M1120.29997 239.253301c-34.267513 0-62.032456 25.80385-62.032457 58.213487s27.764943 58.213487 62.032457 58.213486 62.032456-25.80385 62.032456-58.213486c-0.103215-32.306421-27.764943-58.213487-62.032456-58.213487z m0 99.602863c-7.947586 0-16.411249-2.373954-23.017035-7.018648 7.947586 0 14.553372-6.605786 14.553372-14.553371 0-7.947586-6.605786-14.553372-14.553372-14.553372-7.534724 0-13.624433 5.676847-14.553371 12.695495-2.786816-5.676847-4.231831-11.766556-4.231832-18.269127 0-23.017035 18.785203-41.389376 41.802238-41.389376h3.715754c-7.947586 4.231831-13.624433 12.695494-13.624433 22.500958 0 14.14051 11.766556 25.80385 25.803851 25.80385 11.250479 0 21.159157-7.018647 24.46205-17.340187 0.928939 3.302893 1.445016 7.018647 1.445015 10.32154 0 23.533112-18.785203 41.802238-41.802237 41.802238z m-15.585526 143.262977s19.30128 12.695494 53.052717 0l-12.695495-17.856264-40.357222 17.856264z m80.81766-44.176192c-9.908679 9.908679-34.78359 22.088096-34.783591 22.088096s36.125391 20.64308 44.589054 15.069449c8.566878-5.16077-6.915432-35.712529-9.805463-37.157545z m30.551759-23.429896c-8.463663 7.947586-26.319927 20.64308-26.319928 20.64308l33.338575 24.874912c7.121863-8.463663-1.3418-45.517992-7.018647-45.517992z m15.48231-22.088096c-1.445016 6.605786-9.392602 16.411249-12.179418 18.372342 7.534724 3.715754 20.230219 17.340187 20.230219 17.340187 7.947586-11.250479-2.373954-33.854652-8.050801-35.712529z m0 0" fill="#FFFFFF" p-id="5657"></path><path d="M1411.986695 320.999899c5.676847-1.445016 37.570406 31.893559 33.338575 33.338575 54.497732-59.658502 102.905755-58.213487 102.905755-59.658502-14.14051-36.125391-79.372644-52.639855-79.372644-52.639855-98.673924-17.856264-111.369418 26.319927-114.156234 27.764943-114.156234-83.191614-222.635621-33.338575-221.293821-34.78359 73.799012 16.411249 53.052716 76.069751 53.052716 76.069751s-9.908679 59.658502-78.030843 51.194839c-68.122165-8.463663-56.871686-84.533414-56.871687-84.533414-68.535027 55.426671-131.08356 169.066828-131.08356 169.066828 7.018647 11.250479 83.604475 37.570406 108.479387 39.015422C1176.655579 483.04808 1257.473239 333.282532 1260.260054 333.282532c31.480698 51.194839 23.533112 104.247556-8.463663 131.496422-34.267513 29.106743-131.08356 30.964621-131.08356 30.96462 14.14051 36.641468 113.227296 21.572019 113.227296 21.572019-3.302893 50.265901-114.569096 66.677149-118.800927 66.67715 115.60125 51.194839 211.385143-53.052716 212.830158-54.497732-6.605786 50.265901-78.959782 82.15946-80.301583 82.159459 8.463663 39.94436-69.567181 108.066526-98.673924 102.389679-70.908981-30.551759-119.833081 1.445016-119.833081 1.445015l65.335349 17.856265s68.122165 7.018647 70.908981 34.78359c2.786816 27.764943 26.319927 61.103518 29.106744 61.103518 68.122165-49.749824 33.338575-93.926016 33.338574-93.926015s129.638545-51.194839 201.992541-190.225986c72.353997-139.031146-23.533112-222.635621-17.856264-224.080637z m-32.925713-41.28616c-22.088096-5.676847-5.16077-16.927326 12.695494-26.319928 61.103518-20.230219 91.1392 4.747908 89.694184 4.747909-70.392904-29.209959-102.389678 21.572019-102.389678 21.572019z m0 0" fill="#D8D8D8" p-id="5658"></path><path d="M1099.140812 582.650942c69.051104-19.30128 82.675537-35.196452 82.675537-35.196452s-63.890334-39.428283-98.157847-39.94436c-34.267513-0.516077-78.443705 47.891946-64.819272 74.211874 43.247253 92.997077 125.406713 103.834694 125.406713 103.834694 62.445318-5.676847 75.140812-61.103518 76.585828-63.890334-75.656889 1.445016-119.317004-34.78359-121.690959-39.015422z m-56.355609 24.874912c7.018647-18.785203 49.749824-55.942748 49.749824-55.942747-7.534724-7.018647-49.749824-20.64308-49.749824-20.643081 9.908679-4.231831 56.871686 14.553372 56.871686 14.553372 42.318315-23.017035 46.550146-11.766556 46.550147-11.766556-28.797097 6.709001-103.421832 73.799012-103.421833 73.799012z m0 0" fill="#FFFFFF" p-id="5659"></path><path d="M1099.140812 582.650942c69.051104-19.30128 82.675537-35.196452 82.675537-35.196452s-63.890334-39.428283-98.157847-39.94436c-34.267513-0.516077-65.748211 46.550146-63.374256 64.303195 6.605786 13.624433 13.624433 25.80385 21.159157 36.125391 8.463663-19.30128 49.336962-54.497732 49.336962-54.497732-7.534724-7.018647-49.749824-20.64308-49.749824-20.643081 9.908679-4.231831 56.871686 14.553372 56.871687 14.553372 42.318315-23.017035 46.550146-11.766556 46.550146-11.766556-27.248866 6.605786-93.926016 65.335349-102.905756 73.282935 44.176192 59.142425 102.389678 67.193226 102.389679 67.193227 62.445318-5.676847 75.140812-51.194839 76.585828-53.981655-75.347243 1.032154-119.007358-35.196452-121.381313-39.428284z m0 0" fill="#FFFFFF" p-id="5660"></path><path d="M1455.64681 357.641367c44.589054-43.247253 114.569096-52.639855 114.569096-52.639855s-4.231831-52.639855-70.908981-75.140812c-96.29997-30.551759-149.352686 14.14051-149.352687 14.14051s-120.245943-91.552061-240.491885-29.106744-204.779357 232.957162-204.779357 232.957162c46.034069 56.871686 164.422135 58.213487 164.422135 57.800625-14.14051 3.302893-36.125391 20.230219-34.783591 20.230219-50.265901-15.069449-165.86715 52.639855-148.010886 99.602862 18.372341 46.963008 181.349461 34.78359 181.349461 34.783591s33.338575 24.874912 26.319927 24.874911c-87.32023-6.605786-101.46074 39.015422-101.46074 40.357222 22.500958 0 156.474549 36.125391 156.474549 36.125391s22.500958 95.783893 43.247254 97.228908c21.159157 1.445016 39.015422-34.78359 39.015422-36.12539 26.319927-26.319927 19.714142-81.746598 16.927325-84.533414 12.695494-7.018647 70.908981-24.874912 172.885798-132.012499 101.254309-106.62151 38.808991-245.755871 34.57716-248.542687zM888.684608 618.879548c0-56.871686 130.567483-99.086786 131.083561-87.423445-16.927326 40.357222 0 68.122165 0 68.122165l-26.319928 23.533112 36.125391 1.445016s21.159157 29.106743 22.500957 30.551758c-92.893862 8.360448-160.603165-10.424756-163.389981-36.228606z m134.386453-9.908678v6.089709h-5.676847l5.676847-6.089709z m143.67584 85.462352c-1.445016 4.231831-14.553372 8.463663-14.553372 8.463663l-2.786816-8.463663s18.785203-4.231831 17.340188 0z m0 0" p-id="5661"></path><path d="M1120.29997 236.982562c-34.267513 0-62.032456 26.319927-62.032457 58.213487s27.764943 58.213487 62.032457 58.213486 62.032456-26.319927 62.032456-58.213486c-0.103215-31.996775-27.764943-58.213487-62.032456-58.213487z m0 100.015724c-8.463663 0-16.411249-2.373954-23.017035-7.018647 7.947586 0 14.553372-6.605786 14.553372-14.553371 0-7.947586-6.605786-14.553372-14.553372-14.553372-7.534724 0-13.624433 5.676847-14.553371 12.695494-2.786816-5.676847-4.231831-11.766556-4.231832-18.372341 0-23.017035 18.785203-41.802238 41.802238-41.802238h4.231831c-7.947586 4.231831-13.624433 12.695494-13.624433 22.500958 0 14.14051 11.766556 25.80385 25.803851 25.80385 11.250479 0 21.159157-7.534724 24.46205-17.340187 0.928939 3.302893 1.445016 7.018647 1.445015 10.32154-0.516077 23.533112-19.30128 42.318315-42.318314 42.318314z m-15.585526 143.779055s19.714142 12.695494 53.052717 0l-12.695495-17.856264-40.357222 17.856264z m81.333737-44.692269c-9.908679 9.908679-35.196452 22.088096-35.196452 22.088096s36.641468 20.64308 44.589053 15.48231c8.463663-5.573632-6.605786-36.125391-9.392601-37.570406z m30.551759-23.429896c-8.463663 7.947586-26.319927 20.64308-26.319928 20.64308l33.338575 24.874912c7.018647-7.947586-1.445016-45.517992-7.018647-45.517992z m15.48231-22.088096c-1.445016 6.605786-9.392602 16.411249-12.179418 18.372341 7.534724 3.715754 20.230219 17.340187 20.230219 17.340188 7.947586-11.353694-2.47717-33.854652-8.050801-35.712529z m0 0" fill="#FFFFFF" p-id="5662"></path><path d="M1412.399556 319.142022c5.676847-1.445016 37.570406 31.893559 33.338575 33.338575 54.497732-59.658502 103.318617-58.213487 103.318617-59.658502-14.14051-36.125391-79.372644-52.639855-79.372644-52.639855-99.086786-17.856264-111.78228 26.319927-114.569095 27.764943-114.156234-83.604475-223.151698-33.854652-221.706683-35.196452 73.799012 16.411249 53.052716 76.585828 53.052716 76.585828s-9.908679 59.658502-78.030843 51.194839c-68.122165-8.463663-57.284548-84.533414-57.284548-84.533414-68.535027 55.426671-131.08356 169.066828-131.08356 169.066828 7.018647 11.250479 83.604475 37.570406 108.995464 39.015422 147.598024-2.890031 228.828546-152.758794 231.202499-152.758795 31.480698 51.194839 23.533112 104.763633-8.463663 132.012499-34.267513 29.106743-131.08356 30.964621-131.08356 30.964621 14.14051 36.641468 113.640157 21.572019 113.640158 21.572019-3.302893 49.749824-115.085173 66.677149-118.800928 66.677149 116.014111 51.194839 211.90122-53.052716 213.24302-54.497732-7.018647 50.781978-79.372644 82.675537-80.817659 82.675537 8.463663 40.357222-69.567181 108.066526-99.086786 102.905755-70.908981-30.551759-119.833081 1.445016-119.833081 1.445016l65.748211 17.856264s68.535027 7.018647 70.90898 34.783591c2.786816 27.764943 26.319927 61.103518 29.106744 61.103517 68.535027-49.749824 33.338575-94.442093 33.338575-94.442092s129.638545-51.194839 202.508618-190.742062c72.870074-139.444008-23.842758-223.56456-18.269127-224.493499z m-32.822497-41.802238c-22.500958-5.676847-5.16077-16.927326 12.695494-26.319927 61.516379-20.230219 91.552061 4.644693 90.210261 4.644693-70.496119-29.106743-102.905755 21.675234-102.905755 21.675234z m0 0" fill="#D8D8D8" p-id="5663"></path><path d="M1099.140812 581.309142c69.051104-19.30128 83.191614-35.196452 83.191614-35.196452s-64.406411-39.428283-98.157847-40.357222c-34.267513-0.516077-78.959782 47.891946-64.819272 74.211874 43.247253 92.997077 125.406713 104.247556 125.406713 104.247556 62.961395-5.676847 75.140812-61.103518 76.585828-63.890334-76.172966 1.3418-119.833081-34.886806-122.207036-39.015422z m-56.355609 24.874912c7.018647-18.785203 49.749824-56.355609 49.749824-56.355609-7.534724-7.018647-49.749824-20.64308-49.749824-20.643081 9.908679-4.231831 57.284548 14.553372 57.284548 14.553372 42.731176-23.017035 46.550146-11.766556 46.550146-11.766556-29.209959 7.018647-103.834694 74.211874-103.834694 74.211874z m0 0" fill="#9A6E38" p-id="5664"></path><path d="M1099.140812 581.309142c69.051104-19.30128 83.191614-35.196452 83.191614-35.196452s-64.406411-39.428283-98.157847-40.357222c-34.267513-0.516077-66.264288 46.550146-63.890333 64.406411 6.605786 13.624433 13.624433 25.80385 21.159157 36.12539 8.463663-19.30128 49.336962-54.910594 49.336962-54.910593-7.534724-7.018647-49.749824-20.64308-49.749824-20.643081 9.908679-4.231831 57.284548 14.553372 57.284548 14.553372 42.731176-23.017035 46.550146-11.766556 46.550146-11.766556-27.248866 6.605786-93.926016 65.335349-102.905755 73.282935 44.176192 59.658502 102.905755 67.606088 102.905755 67.606089 62.961395-5.676847 75.140812-51.194839 76.585828-53.981656-76.276182 1.238585-119.936297-34.990021-122.310251-39.118637z m0 0" fill="#FCB316" p-id="5665"></path></svg>